# xmcd
# Copyright (C) 1995-1998 Ti Kan
#
# Track frame offsets:
#       150
#       16086
#       32317
#       48263
#       64799
#       80723
#       96686
#       113343
#       129370
#       144908
#       160708
#       176738
#
# Disc length: 2563 seconds
#
# Revision: 0
# Processed by: cddbd v1.5.2PL0 Copyright (c) Steve Scherf et al.
# Submitted via: CD-Transfer v1.0
#
DISCID=8e0a010c
DTITLE=Fannie - 1st Take [CD)
DYEAR=08
DGENRE=
TTITLE0=How To Loose You (Radio Edit)
TTITLE1=You Want Me Back (Radio Edit)
TTITLE2=She And Humble (Radio Edit)
TTITLE3=You're My Life (Radio Edit)
TTITLE4=The Best Of Me (Radio Edit)
TTITLE5=So Glad (Radio Edit)
TTITLE6=Never Stop (Radio Edit)
TTITLE7=Stomp Your Feet (Radio Edit)
TTITLE8=Foolish Girl (Radio Edit)
TTITLE9=Made Up My Mind (Radio Edit)
TTITLE10=I Free Myself (Radio Edit)
TTITLE11=You're My Home (Radio Edit)
EXTD=
EXTT0=
EXTT1=
EXTT2=
EXTT3=
EXTT4=
EXTT5=
EXTT6=
EXTT7=
EXTT8=
EXTT9=
EXTT10=
EXTT11=
PLAYORDER=
